<svg xmlns="http://www.w3.org/2000/svg" width="115" height="71" viewBox="0 0 115 71">
  <defs>
    <style>
      .a, .b {
        fill: #f99406;
      }

      .b {
        fill-rule: evenodd;
      }
    </style>
  </defs>
  <title>Asset-1</title>
  <g>
    <path class="a" d="M45,41.85,55.1,47.63l.73.42.81-.23a10.49,10.49,0,0,1,2.86-.41A10.8,10.8,0,1,1,48.88,58.2a10.92,10.92,0,0,1,.61-3.58l.24-.7-.27-.69L45,41.85M41,37.29,47.6,54a12.9,12.9,0,0,0-.72,4.24A12.63,12.63,0,1,0,59.5,45.41a12.45,12.45,0,0,0-3.41.49L41,37.29Z"/>
    <path class="a" d="M45,41.85,55.1,47.63l.73.42.81-.23a10.49,10.49,0,0,1,2.86-.41A10.8,10.8,0,1,1,48.88,58.2a10.92,10.92,0,0,1,.61-3.58l.24-.7-.27-.69L45,41.85M41,37.29,47.6,54a12.9,12.9,0,0,0-.72,4.24A12.63,12.63,0,1,0,59.5,45.41a12.45,12.45,0,0,0-3.41.49L41,37.29Z"/>
    <path class="b" d="M55.19,12.78h1.53V0H55.19Zm47.19,43.88v1.56H115V56.66ZM0,58.22H12.63V56.66H0ZM12.64,13.89l8.95,9.06,1.08-1.1-8.95-9.06Zm79.69,8,1.08,1.1,8.95-9.06-1.08-1.1Z"/>
  </g>
</svg>
